<?xml version="1.0" encoding="utf-8"?>
<!-- Generator: Adobe Illustrator 18.1.1, SVG Export Plug-In . SVG Version: 6.00 Build 0)  -->
<svg version="1.1" id="Capa_1" xmlns="http://www.w3.org/2000/svg" xmlns:xlink="http://www.w3.org/1999/xlink" x="0px" y="0px"
	 width="583.2px" height="1000px" viewBox="-380.6 -103 583.2 1000" enable-background="new -380.6 -103 583.2 1000"
	 xml:space="preserve">
<path d="M-274.4,887l466.9-467c6.7-6.7,10-14.4,10-23c0-8.7-3.3-16.4-10-23L-274.4-93c-6.7-6.7-14.4-10-23-10c-8.7,0-16.4,3.3-23,10
	l-50.1,50.1c-6.7,6.7-10,14.4-10,23s3.3,16.4,10,23L23.2,397l-393.8,393.8c-6.7,6.7-10,14.4-10,23c0,8.7,3.3,16.4,10,23.1l50.1,50.1
	c6.7,6.7,14.4,10,23,10C-288.7,897-281.1,893.7-274.4,887z"/>
</svg>
