<?xml version="1.0" encoding="utf-8"?>
<!-- Generator: Adobe Illustrator 14.0.0, SVG Export Plug-In . SVG Version: 6.00 Build 43363)  -->
<!DOCTYPE svg PUBLIC "-//W3C//DTD SVG 1.1//EN" "http://www.w3.org/Graphics/SVG/1.1/DTD/svg11.dtd">
<svg version="1.1" id="Layer_1" xmlns="http://www.w3.org/2000/svg" xmlns:xlink="http://www.w3.org/1999/xlink" x="0px" y="0px"
	 width="1333px" height="1000px" viewBox="0 0 1333 1000" enable-background="new 0 0 1333 1000" xml:space="preserve">
<g>
	<path d="M1333.7,834.3c0,29.2-8.2,56.3-21.4,80.2l-421-471l416.4-364.3c16.2,25.7,26,55.9,26,88.5V834.3L1333.7,834.3z M667,529
		l579.4-507c-23.8-13-50.6-21-79.4-21H167c-28.9,0-55.7,8-79.4,21L667,529z M828.5,498.3L694.4,615.8c-7.8,6.8-17.6,10.2-27.4,10.2
		c-9.8,0-19.6-3.4-27.4-10.2L505.4,498.3l-426.3,477c25.6,16,55.5,25.6,87.9,25.6h1000c32.4,0,62.3-9.6,87.9-25.6L828.5,498.3z
		 M26.3,79.1c-16.2,25.7-26,55.9-26,88.5v666.7c0,29.2,8.2,56.3,21.4,80.2l420.9-471.1L26.3,79.1z"/>
</g>
</svg>
