<?xml version="1.0" encoding="utf-8"?>
<!-- Generator: Adobe Illustrator 18.1.1, SVG Export Plug-In . SVG Version: 6.00 Build 0)  -->
<svg version="1.1" id="Capa_1" xmlns="http://www.w3.org/2000/svg" xmlns:xlink="http://www.w3.org/1999/xlink" x="0px" y="0px"
	 viewBox="-398.2 -103.1 1046.5 1000" enable-background="new -398.2 -103.1 1046.5 1000" xml:space="preserve">
<g>
	<path id="LinkedIn" d="M648.3,510v386.9H424V536c0-90.7-32.4-152.6-113.6-152.6c-62,0-98.9,41.7-115.1,82.1
		c-5.9,14.4-7.4,34.5-7.4,54.7v376.8H-36.5c0,0,3-611.4,0-674.7h224.4v95.6c-0.5,0.7-1,1.5-1.5,2.2h1.5v-2.2
		c29.8-45.9,83-111.5,202.2-111.5C537.6,206.3,648.3,302.8,648.3,510z M-271.2-103.1c-76.8,0-127,50.3-127,116.6
		c0,64.8,48.8,116.6,124,116.6h1.5c78.2,0,126.9-51.9,126.9-116.6C-147.3-52.7-194.5-103.1-271.2-103.1z M-384.9,896.9h224.3V222.2
		h-224.3V896.9z"/>
</g>
</svg>
