<?xml version="1.0" encoding="utf-8"?>
<!-- Generator: Adobe Illustrator 18.1.1, SVG Export Plug-In . SVG Version: 6.00 Build 0)  -->
<svg version="1.1" id="Layer_8" xmlns="http://www.w3.org/2000/svg" xmlns:xlink="http://www.w3.org/1999/xlink" x="0px" y="0px"
	 width="1239.214px" height="1000px" viewBox="0 0 1239.214 1000" enable-background="new 0 0 1239.214 1000" xml:space="preserve">
<path d="M1022.653,561.792c-5.748,0-11.496,0-17.243,0c-309.823,0-619.646,0.014-929.469-0.066
	c-9.647-0.003-19.58,0.309-28.888-1.749c-30.542-6.752-49.782-35.163-46.737-67.433c2.731-28.941,27.048-51.922,57.212-53.872
	c6.754-0.437,13.544-0.411,20.318-0.412c309.339-0.018,618.678-0.016,928.017-0.016c5.676,0,11.352,0,21.029,0
	c-5.802-6.13-9.137-9.826-12.652-13.342c-104.405-104.407-208.752-208.874-313.318-313.12
	c-19.259-19.201-29.169-40.797-20.965-68.029c12.259-40.688,60.802-56.907,95.049-31.767c5.816,4.27,11.084,9.372,16.205,14.49
	c140.375,140.318,280.707,280.68,421.024,421.057c36.071,36.086,35.966,69.095-0.278,105.344
	c-140.681,140.697-281.455,281.302-421.972,422.162c-19.518,19.565-41.103,30.483-69.04,22.122
	c-40.74-12.193-57.096-60.683-32.003-94.958c4.545-6.207,10.031-11.79,15.491-17.253c103-103.07,206.042-206.099,309.189-309.022
	c3.664-3.656,8.494-6.144,12.781-9.176C1025.152,565.099,1023.902,563.445,1022.653,561.792z"/>
<g>
</g>
<g>
</g>
<g>
</g>
<g>
</g>
<g>
</g>
<g>
</g>
<g>
</g>
<g>
</g>
<g>
</g>
<g>
</g>
<g>
</g>
<g>
</g>
<g>
</g>
<g>
</g>
<g>
</g>
</svg>
