<?xml version="1.0" encoding="utf-8"?>
<!-- Generator: Adobe Illustrator 18.1.1, SVG Export Plug-In . SVG Version: 6.00 Build 0)  -->
<svg version="1.1" id="Layer_1" xmlns="http://www.w3.org/2000/svg" xmlns:xlink="http://www.w3.org/1999/xlink" x="0px" y="0px"
	 width="1218.8px" height="1000px" viewBox="0 0 1218.8 1000" enable-background="new 0 0 1218.8 1000" xml:space="preserve">
<g>
	<g>
		<g>
			<path fill="#040404" d="M669.2,613.2v-27.1c0-33-26.8-59.7-59.7-59.7c-33,0-59.8,26.8-59.8,59.7v27.1c0,33,26.8,59.7,59.8,59.7
				C642.4,672.9,669.2,646.1,669.2,613.2z"/>
			<path fill="#040404" d="M710.2,646.2c-13.2,43.3-53.1,75.2-100.7,75.2c-47.6,0-87.5-31.8-100.8-75.2H97.1c-26,0-50.5-6-72.6-16.5
				V903c0,53.4,43.7,97,97,97h975.7c53.4,0,97-43.7,97-97V629.7c-22,10.5-46.6,16.5-72.5,16.5L710.2,646.2L710.2,646.2z"/>
			<path fill="#040404" d="M1117.7,155.4H884.8C870.8,67.5,794.5,0,702.7,0H516.1c-91.9,0-168,67.5-182.1,155.4H101.1
				C45.5,155.4,0,199.1,0,252.5v224c0,53.6,43.4,97,97,97h407c1.4-27.9,13.4-53,32.3-71.1c0.6-0.5,1.3-1,1.9-1.5
				c4.2-3.9,8.6-7.5,13.3-10.6c1.7-1.1,3.6-1.9,5.4-2.9c3.9-2.3,7.8-4.6,12.1-6.4c3.3-1.4,6.9-2.2,10.4-3.2c3-0.9,5.9-2.1,9-2.7
				c6.8-1.4,13.8-2.1,21-2.1c7.2,0,14.2,0.8,20.9,2.1c3.1,0.6,6,1.8,9,2.7c3.5,1,7,1.8,10.4,3.3c4.2,1.7,8.1,4.1,12,6.3
				c1.8,1,3.7,1.8,5.5,3c4.8,3.1,9.1,6.8,13.3,10.6c0.6,0.6,1.4,1,1.9,1.6c19,18.1,30.9,43.2,32.3,71.1h407c53.6,0,97-43.4,97-97
				v-224C1218.8,199.1,1173.3,155.4,1117.7,155.4z M427.4,155.4c12.4-37.4,47.2-64.6,88.7-64.6h186.6c41.5,0,76.3,27.2,88.7,64.6
				H427.4z"/>
		</g>
	</g>
</g>
</svg>
