<?xml version="1.0" encoding="utf-8"?>
<!-- Generator: Adobe Illustrator 18.1.1, SVG Export Plug-In . SVG Version: 6.00 Build 0)  -->
<svg version="1.1" id="Layer_1" xmlns="http://www.w3.org/2000/svg" xmlns:xlink="http://www.w3.org/1999/xlink" x="0px" y="0px"
	 width="933.9px" height="1000px" viewBox="0 0 933.9 1000" enable-background="new 0 0 933.9 1000" xml:space="preserve">
<g>
	<g>
		<path fill="#040404" d="M933.9,361.3V225.1v-14.9c0-78.1-68.9-141.6-154.5-143.8v0v34.6v0v34.7v0.1v19.7
			c0,50.7-41.2,91.9-91.9,91.9c-50.7,0-91.9-41.2-91.9-91.9v-20.2v-34.6V66.1H335.2v34.6v34.6v20.2c0,50.7-41.2,91.9-91.9,91.9
			c-50.7,0-91.9-41.2-91.9-91.9V136v-0.1v-34.9v0V66.5v0C67.3,70,0,133,0,210.1v14.9v136.2V841c0,87.6,71.3,159,159,159h616
			c87.6,0,159-71.3,159-159L933.9,361.3L933.9,361.3z M864.7,841c0,49.5-40.3,89.8-89.8,89.8H159c-49.5,0-89.8-40.3-89.8-89.8V361.3
			h795.5V841z"/>
		<path fill="#040404" d="M203.4,40v26.1v34.6v34.6v20.2c0,22.1,17.9,40,40,40c22.1,0,40-17.9,40-40v-20.2v-34.6V66.1V40
			c0-22.1-17.9-40-40-40C221.3,0,203.4,17.9,203.4,40z"/>
		<path fill="#040404" d="M687.6,0c-22.1,0-40,17.9-40,40v26.1v34.6v34.6v20.2c0,22.1,17.9,40,40,40c22.1,0,40-17.9,40-40v-20.2
			v-34.6V66.1V40C727.5,17.9,709.7,0,687.6,0z"/>
		<path fill="#040404" d="M351.2,839.1c45.1,0,79.2-12.6,102.2-37.8c23-25.2,34.5-54.4,34.5-87.7c0-31.6-9.8-56.5-29.5-74.8
			c-5.3-4.9-10.2-8.8-14.5-11.7c-7.9-5.3-8.5-9.2-1.1-14.9c4.2-3.3,8.3-7.2,12.3-11.8c13.7-15.9,20.6-35.4,20.6-58.5
			c0-32.7-11.5-58.7-34.5-78.2c-23-19.4-53.3-29.1-90.8-29.1c-20.2,0-37.3,2.4-51.2,7.3c-13.9,4.9-25.9,11.9-36,21.1
			c-13.5,13-23.4,27.2-29.8,42.6c-4.2,12.3-7.1,25-8.6,38.3c-1.1,9.5,6.4,17.2,15.9,17.2h37.5c9.6,0,16.9-7.8,18.3-17.3
			c1.7-11.5,5.4-21.2,11.3-29.1c8.6-11.6,21.9-17.3,40.1-17.3c15.9,0,28.1,4.7,36.9,14.1c8.7,9.4,13.1,21.6,13.1,36.6
			c0,23.1-8.6,38.5-25.7,46.1c-7.4,3.4-19.1,5.6-35.1,6.7c-9.5,0.6-17.3,8.4-17.3,17.9v20.7c0,9.5,7.8,17.2,17.3,17.7
			c16.9,0.9,29.9,3.2,38.9,6.9c20.9,8.7,31.3,25.9,31.3,51.7c0,19.5-5.6,34.5-16.9,44.9c-11.3,10.4-24.5,15.6-39.6,15.6
			c-24.7,0-41.7-9.5-51.1-28.4c-3.1-6.3-5.2-13.5-6.4-21.8c-1.4-9.5-8.9-17.3-18.5-17.3h-41.3c-9.5,0-17.1,7.7-16,17.2
			c2.6,23.4,8.5,43,17.7,58.6C257,820.9,295.7,839.1,351.2,839.1z"/>
		<path fill="#040404" d="M566.2,558.4H624c9.5,0,17.3,7.7,17.3,17.3V812c0,9.5,7.8,17.3,17.3,17.3h44.5c9.5,0,17.3-7.8,17.3-17.3
			V453.8c0-9.5-7.8-17.3-17.3-17.3h-29.9c-9.5,0-17.4,3.6-18.3,7.9c-0.5,2.3-1.1,4.9-2,7.8c-3.4,11.7-8.5,21.1-15.1,28.2
			c-9.7,10.3-22.3,17.1-37.8,20.6c-7.2,1.6-18.5,2.9-33.8,4c-9.5,0.6-17.3,8.7-17.3,18.2v18C548.9,550.6,556.6,558.4,566.2,558.4z"
			/>
	</g>
</g>
</svg>
