<?xml version="1.0" encoding="utf-8"?>
<!-- Generator: Adobe Illustrator 14.0.0, SVG Export Plug-In . SVG Version: 6.00 Build 43363)  -->
<!DOCTYPE svg PUBLIC "-//W3C//DTD SVG 1.1//EN" "http://www.w3.org/Graphics/SVG/1.1/DTD/svg11.dtd">
<svg version="1.1" id="Layer_1" xmlns="http://www.w3.org/2000/svg" xmlns:xlink="http://www.w3.org/1999/xlink" x="0px" y="0px"
	 width="1023px" height="1000px" viewBox="0 0 1023 1000" enable-background="new 0 0 1023 1000" xml:space="preserve">
<g>
	<path fill-rule="evenodd" clip-rule="evenodd" fill="#181616" d="M510.8-2.1C228.3-2.1-0.7,227.4-0.7,510.5
		C-0.7,737,145.8,929.2,349.1,997c25.6,4.7,34.9-11.1,34.9-24.7c0-12.2-0.5-52.6-0.7-95.4C241,907.9,211,816.4,211,816.4
		c-23.3-59.3-56.8-75-56.8-75c-46.4-31.8,3.5-31.2,3.5-31.2c51.4,3.6,78.4,52.8,78.4,52.8c45.6,78.4,119.7,55.7,148.9,42.6
		c4.6-33.1,17.8-55.8,32.5-68.6c-113.6-13-233-56.9-233-253.4c0-56,20-101.7,52.7-137.6c-5.3-12.9-22.8-65.1,5-135.7
		c0,0,43-13.8,140.7,52.6c40.8-11.4,84.6-17.1,128-17.3c43.5,0.2,87.3,5.9,128.1,17.3c97.6-66.3,140.5-52.6,140.5-52.6
		c27.8,70.6,10.3,122.8,5,135.7c32.8,35.9,52.6,81.6,52.6,137.6c0,196.9-119.7,240.3-233.6,253c18.3,15.9,34.7,47.1,34.7,94.9
		c0,68.6-0.6,123.8-0.6,140.7c0,13.6,9.2,29.6,35.1,24.6c203.1-67.9,349.5-260,349.5-486.4C1022.3,227.4,793.3-2.1,510.8-2.1z"/>
	<path fill="#181616" d="M193,733.9c-1.1,2.6-5.1,3.3-8.8,1.6c-3.7-1.7-5.8-5.1-4.6-7.7c1.1-2.6,5.1-3.3,8.8-1.6
		C192.2,727.9,194.3,731.4,193,733.9L193,733.9z M186.7,729.2"/>
	<path fill="#181616" d="M213.7,757.1c-2.4,2.3-7.2,1.2-10.4-2.4c-3.3-3.6-4-8.4-1.5-10.7c2.5-2.3,7.1-1.2,10.5,2.4
		C215.6,750,216.3,754.8,213.7,757.1L213.7,757.1z M208.9,751.8"/>
	<path fill="#181616" d="M233.9,786.6c-3.1,2.2-8.3,0.1-11.4-4.4c-3.1-4.6-3.1-10,0.1-12.2c3.2-2.2,8.2-0.2,11.4,4.3
		C237.1,778.9,237.1,784.4,233.9,786.6L233.9,786.6z M233.9,786.6"/>
	<path fill="#181616" d="M261.5,815.1c-2.8,3.1-8.8,2.3-13.1-2c-4.5-4.1-5.7-10-2.9-13.1c2.8-3.1,8.9-2.2,13.3,2
		C263.2,806.2,264.5,812.1,261.5,815.1L261.5,815.1z M261.5,815.1"/>
	<path fill="#181616" d="M299.6,831.7c-1.2,4-7,5.8-12.8,4.1c-5.8-1.8-9.6-6.5-8.4-10.5c1.2-4,7-5.9,12.8-4.1
		C297.1,822.9,300.8,827.6,299.6,831.7L299.6,831.7z M299.6,831.7"/>
	<path fill="#181616" d="M341.5,834.8c0.1,4.2-4.8,7.7-10.9,7.8c-6.1,0.1-11.1-3.3-11.1-7.4c0-4.3,4.8-7.7,10.9-7.8
		C336.5,827.2,341.5,830.6,341.5,834.8L341.5,834.8z M341.5,834.8"/>
	<path fill="#181616" d="M380.5,828.1c0.7,4.1-3.5,8.4-9.5,9.5c-5.9,1.1-11.4-1.5-12.2-5.5c-0.7-4.2,3.6-8.5,9.5-9.6
		C374.3,821.5,379.7,823.9,380.5,828.1L380.5,828.1z M380.5,828.1"/>
</g>
</svg>
