<?xml version="1.0" encoding="utf-8"?>
<!-- Generator: Adobe Illustrator 18.1.1, SVG Export Plug-In . SVG Version: 6.00 Build 0)  -->
<svg version="1.1" id="Layer_1" xmlns="http://www.w3.org/2000/svg" xmlns:xlink="http://www.w3.org/1999/xlink" x="0px" y="0px"
	 width="1188.3px" height="1000px" viewBox="0 0 1188.3 1000" enable-background="new 0 0 1188.3 1000" xml:space="preserve">
<g>
	<path fill="#040404" d="M717.1,171.6c54.9,34.4,93.5,92.7,100.5,160.4c22.4,10.5,47.3,16.5,73.6,16.5c96.3,0,174.3-78,174.3-174.3
		C1065.5,78,987.5,0,891.2,0C795.9,0,718.5,76.7,717.1,171.6z M602.9,528.5c96.3,0,174.3-78,174.3-174.3s-78-174.3-174.3-174.3
		s-174.3,78-174.3,174.3S506.7,528.5,602.9,528.5z M676.8,540.3H529c-123,0-223.1,100.1-223.1,223.2v180.8l0.5,2.8l12.5,3.9
		c117.4,36.7,219.4,48.9,303.4,48.9c164,0,259.1-46.8,264.9-49.7l11.6-5.9h1.2V763.5C900,640.5,799.9,540.3,676.8,540.3z
		 M965.2,360.4H818.4c-1.6,58.7-26.6,111.6-66.3,149.6C861.5,542.6,941.5,644,941.5,763.8v55.7c144.9-5.3,228.4-46.4,233.9-49.1
		l11.6-5.9h1.2V583.6C1188.3,460.5,1088.2,360.4,965.2,360.4z M297.1,348.6c34.1,0,65.8-10,92.7-26.9
		c8.5-55.7,38.4-104.4,81.1-137.6c0.2-3.3,0.5-6.5,0.5-9.8C471.4,78.1,393.3,0,297.1,0c-96.3,0-174.3,78-174.3,174.3
		C122.8,270.5,200.8,348.6,297.1,348.6z M453.6,510c-39.4-37.8-64.4-90.4-66.2-148.8c-5.4-0.4-10.8-0.8-16.4-0.8H223.1
		C100.1,360.4,0,460.5,0,583.6v180.9l0.5,2.8l12.5,3.9c94.2,29.4,178.3,43,251.3,47.2v-54.6C264.2,644,344.2,542.6,453.6,510z"/>
</g>
</svg>
