<?xml version="1.0" encoding="utf-8"?>
<!-- Generator: Adobe Illustrator 14.0.0, SVG Export Plug-In . SVG Version: 6.00 Build 43363)  -->
<!DOCTYPE svg PUBLIC "-//W3C//DTD SVG 1.1//EN" "http://www.w3.org/Graphics/SVG/1.1/DTD/svg11.dtd">
<svg version="1.1" id="Layer_1" xmlns="http://www.w3.org/2000/svg" xmlns:xlink="http://www.w3.org/1999/xlink" x="0px" y="0px"
	 width="784px" height="1000px" viewBox="0 0 784 1000" enable-background="new 0 0 784 1000" xml:space="preserve">
<g id="layer1">
	<path id="path2830" fill="#020202" d="M0.1,582.9l75.2,0.7l-2.6,335h500.7V584.8h79.3V1000h-653L0.1,582.9z"/>
	<rect id="rect3604" x="122.8" y="780.9" fill="#020202" width="392.2" height="83.5"/>
	<polygon id="rect3606" fill="#020202" points="132,630.7 524.5,668.6 516.3,753.8 123.8,715.9 	"/>
	<polygon id="rect3606-1" fill="#020202" points="167.9,460.9 547.4,568 524.2,650.3 144.7,543.2 	"/>
	<polygon id="rect3606-1-3" fill="#020202" points="259.9,268.9 597.4,472.8 553.2,546 215.7,342.2 	"/>
	<polygon id="rect3606-1-3-7" fill="#020202" points="451.9,87.2 681.6,407.7 612,457.5 382.4,137 	"/>
	<polygon id="rect3606-1-3-7-6" fill="#020202" points="718.7,0 783.7,388.9 699.3,403 634.3,14.1 	"/>
</g>
</svg>
